<svg xmlns="http://www.w3.org/2000/svg" width="448" height="449" viewBox="0 0 448 449">
  <g id="emoji" transform="translate(-0.096 0.146)">
    <ellipse id="Ellipse_600" data-name="Ellipse 600" cx="224" cy="224.5" rx="224" ry="224.5" transform="translate(0.096 -0.146)" fill="#ffca28"/>
    <path id="Path_3668" data-name="Path 3668" d="M391.3,293.53A13.916,13.916,0,0,0,380.18,288H84.685a13.976,13.976,0,0,0-13.434,17.763c20.193,71.751,86.47,121.885,161.182,121.885s140.989-50.133,161.182-121.885A13.982,13.982,0,0,0,391.3,293.53Z" transform="translate(-8.996 -35.947)" fill="#fafafa"/>
    <g id="Group_1487" data-name="Group 1487" transform="translate(69.824 112.405)">
      <path id="Path_3669" data-name="Path 3669" d="M174.961,128a49.188,49.188,0,0,0-25.137,7.01A49.188,49.188,0,0,0,124.687,128C99.634,128,80,146.629,80,170.453c0,25.947,32.231,48.262,62.423,67.143a13.927,13.927,0,0,0,14.691.056c32.482-19.858,62.534-41.755,62.534-67.2C219.648,146.629,200.013,128,174.961,128Z" transform="translate(-80 -128)" fill="#f44336"/>
      <path id="Path_3670" data-name="Path 3670" d="M382.961,128a49.188,49.188,0,0,0-25.137,7.01A49.265,49.265,0,0,0,332.687,128C307.607,128,288,146.629,288,170.453c0,25.975,32.2,48.29,62.423,67.143a14.007,14.007,0,0,0,14.691.084c32.482-19.886,62.534-41.783,62.534-67.227C427.648,146.629,408.041,128,382.961,128Z" transform="translate(-106.458 -128)" fill="#f44336"/>
    </g>
  </g>
</svg>
