<svg id="smile" xmlns="http://www.w3.org/2000/svg" width="415.145" height="415.145" viewBox="0 0 415.145 415.145">
  <ellipse id="Ellipse_571" data-name="Ellipse 571" cx="199.459" cy="199.459" rx="199.459" ry="199.459" transform="translate(8.114 8.114)" fill="#fddf6d"/>
  <path id="Path_3565" data-name="Path 3565" d="M252.208,384.555c-110.158,0-199.458-89.3-199.458-199.458A198.939,198.939,0,0,1,118.787,36.843a199.445,199.445,0,0,0-108.78,177.7C10.007,324.7,99.307,414,209.465,414a198.714,198.714,0,0,0,133.421-51.2A198.616,198.616,0,0,1,252.208,384.555Z" transform="translate(-1.893 -6.97)" fill="#fcc56b"/>
  <g id="Group_1443" data-name="Group 1443" transform="translate(137.399 110.623)">
    <path id="Path_3566" data-name="Path 3566" d="M272.956,402.339h0A80.737,80.737,0,0,1,192.219,321.6H353.692A80.737,80.737,0,0,1,272.956,402.339Z" transform="translate(-173.761 -171.461)" fill="#7f184c"/>
    <path id="Path_3567" data-name="Path 3567" d="M231.758,179.755a8.114,8.114,0,0,1-8.114-8.114,18.981,18.981,0,1,0-37.961,0,8.114,8.114,0,0,1-16.228,0,35.209,35.209,0,0,1,70.419,0A8.116,8.116,0,0,1,231.758,179.755Z" transform="translate(-169.455 -136.432)" fill="#7f184c"/>
    <path id="Path_3568" data-name="Path 3568" d="M400.781,179.755a8.114,8.114,0,0,1-8.114-8.114,18.981,18.981,0,1,0-37.961,0,8.114,8.114,0,1,1-16.228,0,35.21,35.21,0,0,1,70.419,0A8.116,8.116,0,0,1,400.781,179.755Z" transform="translate(-201.429 -136.432)" fill="#7f184c"/>
  </g>
  <g id="Group_1444" data-name="Group 1444" transform="translate(95.037 191.631)">
    <path id="Path_3569" data-name="Path 3569" d="M144.031,240.771a26.821,26.821,0,0,0-26.821,26.821h53.642A26.823,26.823,0,0,0,144.031,240.771Z" transform="translate(-117.21 -237.177)" fill="#f9a880"/>
    <path id="Path_3570" data-name="Path 3570" d="M432.556,236.339a26.822,26.822,0,0,0-26.821,26.821h53.642A26.819,26.819,0,0,0,432.556,236.339Z" transform="translate(-171.791 -236.339)" fill="#f9a880"/>
  </g>
  <path id="Path_3571" data-name="Path 3571" d="M216.514,321.6v12.6a9.621,9.621,0,0,0,9.621,9.621H328.966a9.621,9.621,0,0,0,9.621-9.621V321.6Z" transform="translate(-40.958 -60.838)" fill="#f2f2f2"/>
  <path id="Path_3572" data-name="Path 3572" d="M278.559,378.263a73.356,73.356,0,0,0-65.681,1.85,80.589,80.589,0,0,0,64.08,31.646h0A80.437,80.437,0,0,0,309.312,405,73.217,73.217,0,0,0,278.559,378.263Z" transform="translate(-40.27 -70.256)" fill="#fc4c59"/>
  <ellipse id="Ellipse_572" data-name="Ellipse 572" cx="23.26" cy="41.652" rx="23.26" ry="41.652" transform="translate(197.536 74.608) rotate(-74.199)" fill="#fceb88"/>
  <path id="Path_3573" data-name="Path 3573" d="M378.861,90.293a207.428,207.428,0,0,0-93.247-75.121,8.115,8.115,0,1,0-6.106,15.038A191.41,191.41,0,0,1,398.915,207.572c0,105.508-85.836,191.344-191.344,191.344S16.229,313.079,16.229,207.572,102.064,16.229,207.572,16.229a8.114,8.114,0,0,0,0-16.229C93.116,0,0,93.116,0,207.572S93.116,415.145,207.572,415.145s207.572-93.116,207.572-207.572A206.438,206.438,0,0,0,378.861,90.293Z" transform="translate(0 0)"/>
  <path id="Path_3574" data-name="Path 3574" d="M185.682,171.641a18.981,18.981,0,0,1,37.962,0,8.114,8.114,0,1,0,16.228,0,35.21,35.21,0,0,0-70.419,0,8.115,8.115,0,0,0,16.23,0Z" transform="translate(-32.055 -25.809)"/>
  <path id="Path_3575" data-name="Path 3575" d="M354.7,171.641a18.981,18.981,0,1,1,37.961,0,8.114,8.114,0,0,0,16.228,0,35.209,35.209,0,1,0-70.419,0,8.115,8.115,0,0,0,16.23,0Z" transform="translate(-64.029 -25.809)"/>
  <path id="Path_3576" data-name="Path 3576" d="M182.211,319.709a88.851,88.851,0,0,0,177.7,0A8.114,8.114,0,0,0,351.8,311.6H190.325A8.114,8.114,0,0,0,182.211,319.709Zm161.023,8.114a72.628,72.628,0,0,1-144.345,0Z" transform="translate(-34.469 -58.945)"/>
  <circle id="Ellipse_573" data-name="Ellipse 573" cx="8.114" cy="8.114" r="8.114" transform="translate(243.947 5.806)"/>
</svg>
