<svg id="Group_1434" data-name="Group 1434" xmlns="http://www.w3.org/2000/svg" width="447.854" height="619.35" viewBox="0 0 447.854 619.35">
  <ellipse id="Ellipse_365" data-name="Ellipse 365" cx="223.927" cy="223.927" rx="223.927" ry="223.927" transform="translate(0 171.496)" fill="#263238"/>
  <ellipse id="Ellipse_368" data-name="Ellipse 368" cx="76.532" cy="76.532" rx="76.532" ry="76.532" transform="translate(153.063 262.2)" fill="#fff"/>
  <ellipse id="Ellipse_369" data-name="Ellipse 369" cx="25.511" cy="25.511" rx="25.511" ry="25.511" transform="translate(204.085 313.222)" fill="#263238"/>
  <path id="Path_1959" data-name="Path 1959" d="M101.358,550.83c-18.081-80.976,39.717-162.8,129.1-182.755s176.492,29.507,194.572,110.483S383.872,589.4,294.494,609.355,119.439,631.8,101.358,550.83Z" transform="translate(-94.648 -363.652)" fill="#f95c30"/>
  <path id="Path_3665" data-name="Path 3665" d="M186.872,18.107c.048,17.034-43.719,50.793-92.387,50.93S.047,21.344,0,4.31,45.144,26.239,93.813,26.1,186.805,1.073,186.872,18.107Z" transform="matrix(0.996, -0.087, 0.087, 0.996, 133.42, 468.8)" fill="#fff"/>
</svg>
