<svg id="emoji_4_" data-name="emoji (4)" xmlns="http://www.w3.org/2000/svg" width="448.542" height="448.541" viewBox="0 0 448.542 448.541">
  <g id="Group_1500" data-name="Group 1500">
    <g id="Group_1499" data-name="Group 1499">
      <path id="Path_3685" data-name="Path 3685" d="M224.271,0C100.613,0,0,100.613,0,224.271S100.613,448.541,224.271,448.541,448.541,347.928,448.541,224.271,347.928,0,224.271,0Zm0,420.507c-108.183,0-196.237-88.026-196.237-196.237S116.088,28.034,224.271,28.034,420.507,116.06,420.507,224.271,332.453,420.507,224.271,420.507Z" fill="#263238"/>
    </g>
  </g>
  <g id="Group_1502" data-name="Group 1502" transform="translate(252.304 112.135)">
    <g id="Group_1501" data-name="Group 1501">
      <path id="Path_3686" data-name="Path 3686" d="M344.068,128A56.124,56.124,0,0,0,288,184.068a14.017,14.017,0,0,0,28.034,0,28.034,28.034,0,1,1,56.068,0,14.017,14.017,0,0,0,28.034,0A56.124,56.124,0,0,0,344.068,128Z" transform="translate(-288 -128)" fill="#263238"/>
    </g>
  </g>
  <g id="Group_1504" data-name="Group 1504" transform="translate(84.101 112.135)">
    <g id="Group_1503" data-name="Group 1503">
      <path id="Path_3687" data-name="Path 3687" d="M152.068,128A56.124,56.124,0,0,0,96,184.068a14.017,14.017,0,0,0,28.034,0,28.034,28.034,0,1,1,56.068,0,14.017,14.017,0,0,0,28.034,0A56.124,56.124,0,0,0,152.068,128Z" transform="translate(-96 -128)" fill="#263238"/>
    </g>
  </g>
  <g id="Group_1506" data-name="Group 1506" transform="translate(61.967 252.304)">
    <g id="Group_1505" data-name="Group 1505">
      <path id="Path_3688" data-name="Path 3688" d="M392.494,293.551A13.967,13.967,0,0,0,381.337,288H84.739a14.029,14.029,0,0,0-13.484,17.829c20.268,72.019,86.793,122.34,161.783,122.34s141.515-50.321,161.783-122.34A14.051,14.051,0,0,0,392.494,293.551ZM233.038,400.135a140.627,140.627,0,0,1-128.451-84.1h256.9A140.627,140.627,0,0,1,233.038,400.135Z" transform="translate(-70.734 -288)" fill="#263238"/>
    </g>
  </g>
</svg>
